<svg xmlns="http://www.w3.org/2000/svg" viewBox="0 0 64 64">
  <defs>
    <linearGradient id="tile" x1="8" y1="7" x2="57" y2="59" gradientUnits="userSpaceOnUse">
      <stop stop-color="#dff7ff"/>
      <stop offset="0.42" stop-color="#90cdfc"/>
      <stop offset="1" stop-color="#3b82f6"/>
    </linearGradient>
    <linearGradient id="shield" x1="32" y1="14" x2="32" y2="51" gradientUnits="userSpaceOnUse">
      <stop stop-color="#1677ff"/>
      <stop offset="1" stop-color="#1559d6"/>
    </linearGradient>
  </defs>
  <rect x="3" y="3" width="58" height="58" rx="16" fill="#fff"/>
  <path d="M12 15.5 32 7l20 8.5v15.2c0 13-8.2 22-20 26.3C20.2 52.7 12 43.7 12 30.7V15.5Z" fill="url(#tile)"/>
  <path d="M32 14.5 44 20v10c0 8.1-4.7 14.2-12 17.6C24.7 44.2 20 38.1 20 30V20l12-5.5Z" fill="url(#shield)"/>
  <path d="m32 20 7 7-5 5 5 5-7 7V20Zm0 0-5 5m5 7-5-5m5 5-5 5m5-5 5-5" fill="none" stroke="#fff" stroke-width="2.2" stroke-linecap="round" stroke-linejoin="round"/>
</svg>
